<?xml version="1.0"?>
<svg xmlns="http://www.w3.org/2000/svg" id="Capa_1" enable-background="new 0 0 510 510" height="512px" viewBox="0 0 510 510" width="512px" class=""><g><path d="m143.251 135.376 72.645-54.356 54.487 37.231c5.802 3.965 13.581 3.368 18.712-1.433l71.605-67.016-.034 33.572c-.008 8.284 6.701 15.006 14.985 15.015 8.332 0 15.007-6.741 15.015-14.985.074-73.381.15-68.787-.115-70.554-1.198-7.669-7.638-12.774-14.801-12.781-.001-.001-68.336-.069-68.335-.069-8.276 0-14.991 6.706-15 14.985-.008 8.285 6.701 15.007 14.985 15.015l30.522.031-60.544 56.665-53.415-36.498c-5.298-3.62-12.312-3.47-17.449.375l-81.235 60.784c-6.633 4.963-7.987 14.363-3.024 20.996 4.965 6.636 14.368 7.984 20.996 3.023z" data-original="#000000" class="active-path" data-old_color="#000000" fill="#FFFFFF"/><path d="m495 176h-480c-8.284 0-15 6.716-15 15v304c0 8.284 6.716 15 15 15h480c8.284 0 15-6.716 15-15v-304c0-8.284-6.716-15-15-15zm-15 304h-450v-274h450z" data-original="#000000" class="active-path" data-old_color="#000000" fill="#FFFFFF"/><path d="m77.33 410.88c12.566 0 22.79 10.224 22.79 22.79 0 8.284 6.716 15 15 15h279.76c8.284 0 15-6.716 15-15 0-12.566 10.224-22.79 22.79-22.79 8.284 0 15-6.716 15-15v-105.76c0-8.284-6.716-15-15-15-12.566 0-22.79-10.224-22.79-22.79 0-8.284-6.716-15-15-15h-279.76c-8.284 0-15 6.716-15 15 0 12.566-10.224 22.79-22.79 22.79-8.284 0-15 6.716-15 15v105.76c0 8.284 6.716 15 15 15zm15-107.93c17.068-5.067 30.553-18.553 35.62-35.62h254.1c5.067 17.067 18.552 30.553 35.62 35.62v80.1c-17.068 5.067-30.553 18.553-35.62 35.62h-254.1c-5.067-17.067-18.552-30.553-35.62-35.62z" data-original="#000000" class="active-path" data-old_color="#000000" fill="#FFFFFF"/><path d="m147.333 368.595c8.284 0 15-6.716 15-15v-21.189c0-8.284-6.716-15-15-15s-15 6.716-15 15v21.189c0 8.284 6.716 15 15 15z" data-original="#000000" class="active-path" data-old_color="#000000" fill="#FFFFFF"/><path d="m362.667 368.595c8.284 0 15-6.716 15-15v-21.189c0-8.284-6.716-15-15-15s-15 6.716-15 15v21.189c0 8.284 6.715 15 15 15z" data-original="#000000" class="active-path" data-old_color="#000000" fill="#FFFFFF"/><path d="m255 388c24.813 0 45-20.187 45-45s-20.187-45-45-45-45 20.187-45 45 20.187 45 45 45zm0-60c8.271 0 15 6.729 15 15s-6.729 15-15 15-15-6.729-15-15 6.729-15 15-15z" data-original="#000000" class="active-path" data-old_color="#000000" fill="#FFFFFF"/></g> </svg>
