<?xml version="1.0"?>
<svg xmlns="http://www.w3.org/2000/svg" height="512px" viewBox="0 0 512 512" width="512px" class=""><g><path d="m40 452v-392c0-11.027344 8.972656-20 20-20h174.890625v71.109375c0 33.085937 26.914063 60 60 60h71v58.890625h40v-87.144531l-142.132813-142.855469h-203.757812c-33.085938 0-60 26.914062-60 60v392c0 33.085938 26.914062 60 60 60h264.890625v-40h-264.890625c-11.027344 0-20-8.972656-20-20zm234.886719-340.890625v-43.207031l62.890625 63.210937h-42.890625c-11.027344-.003906-20-8.972656-20-20.003906zm173.285156 159.890625c6.324219-9.0625 16.824219-15 28.71875-15 19.328125 0 35 15.671875 35 35s-15.671875 35-35 35c-11.894531 0-22.394531-5.9375-28.71875-15h-213.566406c-6.328125 9.0625-16.824219 15-28.71875 15-19.328125 0-35-15.671875-35-35s15.671875-35 35-35c11.890625 0 22.390625 5.9375 28.71875 15zm63.714844 204c0 19.328125-15.667969 35-35 35-11.890625 0-22.390625-5.9375-28.714844-15h-82.285156v-93h-79c-6.382813 8.5-16.546875 14-28 14-19.328125 0-35-15.671875-35-35s15.671875-35 35-35c12.324219 0 23.152343 6.375 29.386719 16h117.613281v93h42.285156c6.324219-9.0625 16.824219-15 28.714844-15 19.332031 0 35 15.671875 35 35zm0 0" data-original="#000000" class="active-path" data-old_color="#000000" fill="#FFFFFF"/></g> </svg>
