<?xml version="1.0"?>
<svg xmlns="http://www.w3.org/2000/svg" xmlns:xlink="http://www.w3.org/1999/xlink" version="1.1" id="Capa_1" x="0px" y="0px" viewBox="0 0 512 512" style="enable-background:new 0 0 512 512;" xml:space="preserve" width="512px" height="512px" class=""><g><g>
	<g>
		<path d="M444,193.025V193h-0.013C443.446,89.796,359.329,6,256,6S68.554,89.796,68.013,193H68v0.025    C30.414,193.564,0,224.288,0,262c0,37.712,30.414,68.436,68,68.975V331v85c0,35.841,29.159,65,65,65h85.929    c5.947,14.643,20.318,25,37.071,25c22.056,0,40-17.944,40-40c0-19.35-13.812-35.532-32.095-39.212    c59.889-3.168,110.443-42.105,130.656-95.788H443h1v-0.025c37.586-0.539,68-31.263,68-68.975    C512,224.288,481.586,193.564,444,193.025z M68,300.974C46.957,300.441,30,283.169,30,262s16.957-38.441,38-38.975V300.974z     M98,223h10v56v22H98V223z M218.929,451H133c-19.299,0-35-15.701-35-35v-85h19.439c20.213,53.683,70.767,92.62,130.656,95.788    C234.823,429.459,223.916,438.722,218.929,451z M266,465.999c0,5.514-4.486,10.001-10,10.001c-2.724,0-5.195-1.098-7-2.871V458.87    c1.805-1.773,4.276-2.871,7-2.871C261.514,455.999,266,460.485,266,465.999z M374,279c0,65.065-52.935,118-118,118    s-118-52.935-118-118v-57c0-52.383,42.617-95,95-95h46c52.383,0,95,42.617,95,95V279z M279,97h-46    c-58.945,0-108.484,41.013-121.597,96h-13.39C98.554,106.338,169.213,36,256,36s157.446,70.338,157.987,157h-13.391    C387.484,138.013,337.945,97,279,97z M414,301h-10v-22v-56h10V301z M444,300.975v-77.949c21.043,0.534,38,17.805,38,38.975    C482,283.171,465.043,300.441,444,300.975z" data-original="#000000" class="active-path" data-old_color="#000000" fill="#FFFFFF"/>
	</g>
</g><g>
	<g>
		<path d="M306.205,312.204C292.794,325.615,274.965,333,256,333c-18.965,0-36.794-7.385-50.205-20.795l-21.213,21.213    C203.659,352.494,229.022,363,256,363c26.978,0,52.341-10.506,71.418-29.583L306.205,312.204z" data-original="#000000" class="active-path" data-old_color="#000000" fill="#FFFFFF"/>
	</g>
</g></g> </svg>
